<svg width="667" height="667" viewBox="0 0 667 667" fill="none" xmlns="http://www.w3.org/2000/svg">
<path fill-rule="evenodd" clip-rule="evenodd" d="M0 333.333C0 149.238 149.238 0 333.333 0C517.427 0 666.667 149.238 666.667 333.333C666.667 517.427 517.427 666.667 333.333 666.667C149.238 666.667 0 517.427 0 333.333ZM456.903 243.096C469.92 256.114 469.92 277.22 456.903 290.237L334.143 412.997C315.287 431.853 284.713 431.853 265.856 412.997L209.763 356.903C196.746 343.887 196.746 322.78 209.763 309.763C222.781 296.747 243.886 296.747 256.904 309.763L300 352.86L409.763 243.096C422.78 230.079 443.887 230.079 456.903 243.096Z" fill="#CC0000"/>
<path d="M456.903 243.096C469.92 256.114 469.92 277.22 456.903 290.237L334.143 412.997C315.287 431.853 284.713 431.853 265.856 412.997L209.763 356.903C196.746 343.887 196.746 322.78 209.763 309.763C222.781 296.747 243.886 296.747 256.904 309.763L300 352.86L409.763 243.096C422.78 230.079 443.887 230.079 456.903 243.096Z" fill="#CC0000"/>
<rect x="189" y="186" width="287" height="293" fill="#CC0000"/>
<rect x="418.136" y="200" width="66.7135" height="308.491" rx="33.3568" transform="rotate(45 418.136 200)" fill="white"/>
<rect x="465.31" y="418.136" width="66.7135" height="308.491" rx="33.3568" transform="rotate(135 465.31 418.136)" fill="white"/>
</svg>
