<svg width="667" height="667" viewBox="0 0 667 667" fill="none" xmlns="http://www.w3.org/2000/svg">
<rect x="183" y="131" width="300" height="403" fill="white"/>
<path fill-rule="evenodd" clip-rule="evenodd" d="M300 366.667C300 385.077 314.923 400 333.333 400C351.743 400 366.667 385.077 366.667 366.667V200C366.667 181.591 351.743 166.667 333.333 166.667C314.923 166.667 300 181.591 300 200V366.667ZM366.667 466.293C366.667 447.883 351.743 432.96 333.333 432.96C314.923 432.96 300 447.883 300 466.293V466.667C300 485.077 314.923 500 333.333 500C351.743 500 366.667 485.077 366.667 466.667V466.293ZM175.002 12.9273C218.293 3.30667 270.81 0 333.333 0C395.857 0 448.373 3.30667 491.663 12.9273C535.333 22.6323 571.627 39.2 599.547 67.1193C627.467 95.0387 644.033 131.334 653.74 175.002C663.36 218.293 666.667 270.81 666.667 333.333C666.667 395.857 663.36 448.373 653.74 491.663C644.033 535.333 627.467 571.627 599.547 599.547C571.627 627.467 535.333 644.033 491.663 653.74C448.373 663.36 395.857 666.667 333.333 666.667C270.81 666.667 218.293 663.36 175.002 653.74C131.334 644.033 95.0387 627.467 67.1193 599.547C39.2 571.627 22.6323 535.333 12.9273 491.663C3.30667 448.373 0 395.857 0 333.333C0 270.81 3.30667 218.293 12.9273 175.002C22.6323 131.334 39.2 95.0387 67.1193 67.1193C95.0387 39.2 131.334 22.6323 175.002 12.9273Z" fill="#00369A"/>
</svg>
