<?xml version="1.0" encoding="iso-8859-1"?>
<!-- Uploaded to: SVG Repo, www.svgrepo.com, Generator: SVG Repo Mixer Tools -->
<svg height="800px" width="800px" version="1.1" id="Layer_1" xmlns="http://www.w3.org/2000/svg" xmlns:xlink="http://www.w3.org/1999/xlink" 
	 viewBox="0 0 511.982 511.982" xml:space="preserve">
<path style="fill:#E9573F;" d="M329.239,44.661c-2.188-2.344-5.14-3.641-8.296-3.641c-0.641,0-1.281,0.062-1.906,0.172
	c-37.202,6.422-88.45,42.951-90.606,44.514c-3.297,2.359-4.968,6.375-4.312,10.375s3.516,7.281,7.375,8.484l87.106,26.843
	c1.031,0.312,2.094,0.469,3.141,0.469c2.141,0,4.265-0.641,6.062-1.891c2.702-1.844,4.39-4.844,4.593-8.094
	c0-0.172,1.031-16.546,1.5-33.264C334.894,53.301,332.801,48.442,329.239,44.661z"/>
<path style="fill:#FC6E51;" d="M508.544,325.031l-87.073-80.347l-1.766-23.14c-0.156-1.906-0.812-3.75-1.922-5.312l-65.154-92.653
	c-1.078-1.547-2.562-2.781-4.281-3.562c-2.578-1.188-64.013-28.983-140.212-28.983c-39.218,0-75.356,7.453-107.387,22.171
	c-39.42,18.109-72.7,47.279-98.964,86.684c-2.062,3.094-2.359,7.046-0.781,10.421l127.995,274.34
	c1.766,3.781,150.524-113.073,208.131-113.276c11.531,0.594,85.654,4.437,98.919,6.03c1.797,0.203,3.719,0.312,5.718,0.312l0,0
	c17.047,0,37.765-7.812,46.17-13.452c8.797-5.906,20.046-22.219,22.218-25.437C513.106,334.469,512.419,328.594,508.544,325.031z"/>
<g>
	<path style="fill:#434A54;" d="M373.315,222.357c0,5.89-4.766,10.671-10.655,10.671c-5.891,0-10.672-4.781-10.672-10.671
		s4.781-10.656,10.672-10.656C368.55,211.701,373.315,216.467,373.315,222.357z"/>
	<path style="fill:#434A54;" d="M510.153,338.828c2.953-4.359,2.266-10.234-1.609-13.797l-9.562-8.826
		c0,0-17.201,17.717-16.811,21.717c0.391,3.999,17.717,14.64,17.717,14.64C504.809,346.624,508.934,340.64,510.153,338.828z"/>
</g>
<path style="fill:#E6E9ED;" d="M215.994,392.185c-35.562,35.124-111.98,38.905-111.98,38.905l24.983,53.56
	c1.766,3.781,5.562,6.155,9.656,6.155c0.406,0,0.812-0.031,1.234-0.078c80.45-9.28,108.542-43.091,133.337-72.934
	c17.281-20.812,32.234-38.812,63.903-46.42C337.129,371.374,261.664,347.061,215.994,392.185z"/>
<g>
	<path style="fill:#E9573F;" d="M192.73,91.424c-0.016,0-0.016,0-0.031,0c-11.672,0.594-23.062,1.891-34.108,3.859
		c-0.016,0-0.031,0-0.047,0.016l12.593,31.155L192.73,91.424z"/>
	<path style="fill:#E9573F;" d="M270.428,47.583c-36.685,18.999-14.483,131.119-14.483,131.119l21.374-20.343
		C277.319,158.359,307.1,28.583,270.428,47.583z"/>
</g>
<g>
	<path style="fill:#FC6E51;" d="M181.292,129.72l61.904,28.639c0-77.325,27.232-126.511,27.232-126.511
		S202.667,63.097,181.292,129.72z"/>
	<path style="fill:#FC6E51;" d="M287.991,169.031c-5.891,0-10.672-4.781-10.672-10.671c0-38.795-4.594-70.153-8.469-89.605
		c-1.719-8.656-3.437-15.796-4.89-21.218c-6.312,3.812-14.78,9.437-23.78,16.89c-16.609,13.75-38.561,36.827-48.732,68.544
		c-1.797,5.609-7.797,8.703-13.406,6.906c-5.609-1.812-8.703-7.812-6.906-13.421c9.359-29.187,28.718-56.466,55.951-78.887
		c20.437-16.828,38.124-25.062,38.874-25.405c2.718-1.25,5.827-1.312,8.593-0.141c2.766,1.156,4.906,3.421,5.906,6.234
		c0.203,0.531,4.719,13.296,9.203,35.764c4.109,20.515,9,53.529,9,94.34C298.663,164.25,293.882,169.031,287.991,169.031z"/>
	<path style="fill:#FC6E51;" d="M274.569,22.021c-5.438-2.297-11.687,0.25-13.983,5.687c-1.531,3.656-37.56,90.199-25.749,153.931
		c0.953,5.141,5.437,8.719,10.468,8.719c0.656,0,1.312-0.047,1.969-0.172c5.781-1.078,9.609-6.641,8.531-12.438
		c-10.64-57.419,24.092-140.932,24.452-141.76C282.538,30.568,279.991,24.302,274.569,22.021z"/>
</g>
</svg>